<svg xmlns="http://www.w3.org/2000/svg" viewBox="130.359375 52.189998626708984 314.28125 439.4250011444092"> <svg xmlns="http://www.w3.org/2000/svg" xmlns:xlink="http://www.w3.org/1999/xlink" version="1.1" id="Layer_1" x="200.359375" y="122.18999862670898" viewBox="742.4545288085938 663.030029296875 519.8197631835938 685.9854736328125" xml:space="preserve" height="230" width="174.28125" preserveAspectRatio="xMinYMin" enable-background="new 0 0 2000 2000" style="overflow: visible;"><path class="st0" d="M1000.87,888.91c-3.29,3.26-6.82,6.53-10.35,9.79c-3.06,3.03-9.64,9.33-10.35,13.75   c-0.71,2.8-0.71,9.33,1.41,12.82c3.06-2.56,6.58-7.69,7.99-9.79C994.29,907.79,998.05,898.47,1000.87,888.91L1000.87,888.91z" style="fill-rule: evenodd; clip-rule: evenodd; fill: #230067;"></path><path class="st0" d="M1132.55,1149.55c-0.47-6.53-1.41-13.52-2.59-19.58c-8.7,6.06-18.81,15.15-27.04,24.01   C1112.8,1153.05,1123.38,1151.42,1132.55,1149.55L1132.55,1149.55z" style="fill-rule: evenodd; clip-rule: evenodd; fill: #230067;"></path><path class="st1" d="M1128.56,882.85l53.61,27.28c32.92,17.02,61.14,52.22,73.36,86.26c16.7,45.23-0.47,108.87-20.46,151.07   l-0.94,2.1l-35.74,57.82c-4.47,15.39-8.94,30.77-13.64,45.93c-4.7,15.85-11.76,41.96-19.52,55.95c-2.35,4.2-5.17,8.16-8.7,11.42   c-18.11,17.25-44.44,17.49-66.08,7.46c-16.22-7.46-29.63-20.28-36.92-36.6c-5.17-1.4-12.23-0.47-17.17,1.17   c-2.12,2.33-4.47,6.29-5.88,8.39c-13.64,21.22-25.87,43.36-54.08,47.33c-18.58,2.8-35.51-4.66-48.44-17.72   c-9.41-9.56-18.34-20.52-26.81-31.24l-67.02-78.33c-36.21-22.38-65.13-62.95-78.77-100.48c-14.34-39.17-22.34-98.15,6.82-133.35   l32.92-40.33c2.35-12.59,5.64-24.48,8.7-34.5c8.47-26.81,23.51-49.42,41.86-70.64c13.17-15.39,28.45-29.84,40.91-45.69   c8.47-10.72,12.23-37.77,12.23-50.82l-0.47-82.3l66.55,49.42c29.16,21.68,55.96,63.88,61.37,103.74l37.86,17.02   C1087.17,843.45,1113.27,860.7,1128.56,882.85L1128.56,882.85z" style="fill-rule: evenodd; clip-rule: evenodd; fill: #7F7F7F;"></path><path class="st2" d="M1125.26,962.34c6.58-3.03,14.34-7.46,17.4-11.19l-23.75-50.12l53.61,27.28c8.94,4.66,18.34,11.89,25.4,18.42   c17.17,15.62,30.33,34.97,38.33,56.65c14.34,39.4-2.59,98.85-19.75,135.45l-0.47,1.17l-36.68,58.98   c-4.7,16.32-9.41,32.41-14.34,48.49c-3.06,10.26-6.11,20.52-9.64,30.77c-2.12,6.53-4.7,15.15-8.23,21.22   c-1.18,2.33-3.06,4.66-4.94,6.53c-11.76,11.19-29.16,10.02-43.03,3.73c-13.4-6.29-24.45-17.72-28.69-31.71   c-1.88-3.26-10.82-6.06-14.11-6.53c-10.11-2.1-21.16-0.93-30.57,3.26c-4,1.86-10.35,11.89-12.7,15.39   c-9.64,15.15-19.75,35.2-39.74,38c-11.99,1.86-22.34-3.5-30.57-11.66c-9.17-9.33-17.64-19.82-25.63-29.84l-69.84-81.83   c-7.76-4.66-15.28-10.26-21.16-15.62c-23.75-20.28-40.91-46.39-51.5-75.54c-9.41-25.64-15.05-54.55-9.88-81.83   c2.12-10.26,6.58-23.31,13.4-31.71l18.58-22.61l15.05,24.95c0,0,0,0,0,0.23c-2.82-27.98,3.53-58.28,11.76-84.16   c7.52-24.01,21.4-44.3,37.62-63.41c13.64-15.62,28.92-30.31,41.62-46.39c11.76-14.69,16.7-45.23,16.7-63.41l-0.24-41.26   l33.16,24.71c10.11,7.46,19.05,16.79,26.57,27.04c17.17,23.78,34.33,63.88,24.69,93.49c-8.23,24.95-39.74,37.3-43.97,59.22   c-2.35,13.29,1.65,32.87,16.46,37.53c8.7,2.56,16.7-2.8,22.34-8.63c16.46-17.02,24.45-48.26,28.45-70.41l4.47-25.88l24.22,10.72   c24.69,10.72,57.37,33.11,64.19,60.38c1.65,6.53,2.59,13.06,3.29,19.82c0.94,8.86,1.18,17.72,1.88,26.58   C1125.03,959.55,1125.03,960.95,1125.26,962.34L1125.26,962.34z" style="fill-rule: evenodd; clip-rule: evenodd;"></path><path class="st3" d="M1197.69,1130.2c0,0,35.51-75.07,19.28-119.83c-16.46-44.76-53.85-63.88-53.85-63.88s9.41,19.82-38.8,38.7   c-27.04,10.49-16.22-34.74-24.45-68.08c-6.82-26.11-52.67-46.63-52.67-46.63c-25.16,144.78-120.16,101.18-107.7,34.27   c5.88-30.31,38.56-43.13,44.44-61.78c7.76-23.78-11.05-73.44-43.74-97.92c0,0,0,49.89-21.16,76.47   c-24.69,30.77-62.31,59.68-75.95,103.05c-25.4,81.13,0,108.17,0,108.17c-28.45,2.1-38.56-2.33-48.91-19.82c0,0-23.75,28.91,0,93.72   c23.51,65.04,73.6,85.79,73.6,85.79s4.7-49.66,20.93-50.59c11.76-0.7,64.19,24.01,90.53,39.17c6.58,3.96,12.46-2.56,11.52-9.33   c-0.47-3.26-7.52-9.09-7.05-9.09c8.7,2.1,22.1,21.22,13.87,29.38c-18.34,17.72-43.5,38-62.78,39.4   c-31.98,2.1-60.67-26.81-60.67-26.81l54.79,64.11l4.23,4.9c8.47,10.96,17.4,21.45,24.45,28.68c24.45,24.71,34.57-34.74,59.73-46.16   c30.33-13.52,67.02-3.03,72.66,15.85c5.88,18.88,33.39,28.21,39.27,17.72c5.88-10.72,30.57-97.68,30.57-97.68l2.59-7.23   c-28.69,7.93-140.85,25.41-140.62-26.81c0-21.22,7.76-23.08,7.76-23.08c0,9.09-0.94,29.38,9.88,26.81   c5.88-1.4,11.99-7.93,16.46-13.52c1.65-3.03,3.53-5.83,5.64-8.63h0.24l0,0c20.69-27.98,57.38-56.88,78.77-56.65   c35.74,0.47,34.1,84.63,34.1,84.63L1197.69,1130.2z" style="fill-rule: evenodd; clip-rule: evenodd; fill: #6ff501; fill-opacity: 1;"></path><path class="st4" d="M933.86,1274.74c8.47,10.49,16.7,20.52,23.75,27.51c24.45,24.71,34.57-34.74,59.73-46.16   c30.33-13.52,67.02-3.03,72.66,15.85c5.88,18.88,33.39,28.21,39.27,17.72c1.65-3.26,4.94-12.59,8.7-24.48   c-3.06,7.69-8.7,17.25-17.87,18.18c-15.28,1.63-13.17-14.45-27.51-29.84c-14.11-15.39-28.22-11.42-28.22-11.42   s18.34-6.29,19.52-6.06c0.94,0.23-36.68-9.56-58.79,3.73c-21.87,13.29-19.99,12.12-39.97,44.76   c-19.99,32.41-50.32-10.96-50.32-10.96S934.56,1274.05,933.86,1274.74L933.86,1274.74z" style="fill-rule: evenodd; clip-rule: evenodd; fill: #009e0d; fill-opacity: 1;"></path><path class="st4" d="M1197.69,1130.2c0,0,0.71-1.17,1.41-3.03c-0.47-3.26-1.41-6.76-2.35-10.02   c-13.87-43.83-39.27-41.03-39.27-41.03s9.88,9.56,8.47,8.39c-1.41-0.93-19.05-10.96-36.68-3.73   c-11.05,4.43-22.34,11.66-32.92,23.31c15.99-12.59,32.45-21.45,44.21-21.22c35.74,0.47,34.1,84.63,34.1,84.63L1197.69,1130.2z    M1156.54,1203.87c2.12-7.23,3.29-11.89,3.29-11.89l2.59-7.23c-28.69,7.93-140.85,25.41-140.62-26.81   c0-12.59,2.82-18.42,4.94-20.98c0.47-2.56,1.18-3.96,1.41-3.5c0.94,1.63-25.4,29.14,2.59,55.25c28.22,26.11,62.31,26.11,60.2,26.11   c-2.12,0-14.11-13.75-14.11-13.75s28.69,19.35,69.13,6.76C1149.48,1206.67,1153.01,1205.27,1156.54,1203.87L1156.54,1203.87z" style="fill-rule: evenodd; clip-rule: evenodd; fill: #009e0d; fill-opacity: 1;"></path><path class="st4" d="M855.79,1185.69c7.05,4.66,11.99,6.76,11.99,6.76s4.23-44.76,18.58-50.12h0.47c0,0-20.22-5.83-31.98,20.28   C851.79,1169.6,852.73,1177.76,855.79,1185.69L855.79,1185.69z M982.53,1182.19c5.17,0.47,8.94-4.9,8.23-10.49   c-0.24-1.87-2.59-4.43-4.47-6.29L982.53,1182.19z M986.53,1163.77c8.47,4.9,18.34,20.98,11.05,28.21   c-18.34,17.72-43.5,38-62.78,39.4c-31.98,2.1-60.67-26.81-60.67-26.81l36.45,42.66c9.41,2.33,22.34,2.33,39.5-3.5   c49.62-16.79,52.2-35.67,52.2-35.67l-15.99,10.02c0,0,23.28-11.66,19.52-29.37C1002.28,1171,986.53,1163.77,986.53,1163.77   L986.53,1163.77z" style="fill-rule: evenodd; clip-rule: evenodd; fill: #009e0d; fill-opacity: 1;"></path><path class="st4" d="M1164.53,947.42c-0.71-0.7-1.41-0.93-1.41-0.93s9.41,19.82-38.8,38.7c-27.04,10.49-16.22-34.74-24.45-68.08   c-2.82-10.49-11.76-20.28-21.63-27.98c0.47,0.47,10.58,28.44,12.93,41.96c5.88,31.24,7.76,66.91,20.22,95.59   c17.87,41.5,79.95,33.57,80.89-6.29C1193.22,980.3,1164.53,947.42,1164.53,947.42L1164.53,947.42z" style="fill-rule: evenodd; clip-rule: evenodd; fill: #009e0d; fill-opacity: 1;"></path><path class="st4" d="M1047.2,870.49c-25.16,144.78-120.16,101.18-107.7,34.27c5.88-30.31,38.56-43.13,44.44-61.78   c7.76-23.78-11.05-73.44-43.74-97.92c0,0,0,0.47,0,1.4c4.94,8.39,14.34,21.22,13.17,78.8c-1.18,57.35-74.31,81.83-58.79,158.53   C919.75,1108.52,1101.51,1032.52,1047.2,870.49L1047.2,870.49z" style="fill-rule: evenodd; clip-rule: evenodd; fill: #009e0d; fill-opacity: 1;"></path><path class="st4" d="M832.51,1001.51c2.35,22.61,10.58,31.24,10.58,31.24c122.51,72.97-6.35,84.16-30.33,59.68   c-33.39-34.5-18.58-79.5-18.58-79.5c10.35,17.49,20.46,21.91,48.91,19.82C843.09,1032.75,838.39,1022.03,832.51,1001.51   L832.51,1001.51z" style="fill-rule: evenodd; clip-rule: evenodd; fill: #009e0d; fill-opacity: 1;"></path><polygon class="st5" points="910.58,1167.74 929.15,1162.61 933.15,1177.06 947.73,1173.1 952.67,1191.52 938.32,1195.48    942.09,1209.7 923.51,1214.83 919.51,1200.61 905.17,1204.34 900,1185.92 914.58,1181.96  " style="fill-rule: evenodd; clip-rule: evenodd; fill: #FFFFFF;"></polygon><path class="st5" d="M1101.04,1110.39l27.75-7.46l5.17,18.65l-0.94,1.17l-0.24,0.23l-8.7,14.22l-0.24-0.23l-0.47,0.7l-15.28-7.93   l-2.12-1.63L1101.04,1110.39z M1138.43,1123.21l17.64-4.66l7.76,27.28l-18.58,5.13v-0.23c-0.71,0-2.12-1.17-2.12-1.17l-0.24-0.23   l-15.28-9.33l8.7-14.45L1138.43,1123.21z M1143.13,1154.68l4.94,18.42l-27.75,7.46l-4.94-18.18l1.18-2.33l0,0l8.94-16.32   l14.58,9.09C1140.55,1153.05,1141.72,1154.21,1143.13,1154.68L1143.13,1154.68z M1111.63,1160.04l-18.58,4.9l-7.52-27.51l18.81-4.9   l1.18,0.93l0.71,0.23l15.28,7.93l-8.94,16.55l0,0L1111.63,1160.04z" style="fill-rule: evenodd; clip-rule: evenodd; fill: #FFFFFF;"></path></svg> <svg y="408.4050006866455" viewBox="0.05000000447034836 7.670000076293945 80.72999572753906 13.209999084472656" x="247.13500213623047" height="13.209999084472656" width="80.72999572753906" style="overflow: visible;"><g fill="#f9f2f2" fill-opacity="1" style=""><path d="M4.09 13.50C4.55 12.01 4.99 10.58 5.40 9.04L5.47 9.04C5.90 10.57 6.32 12.01 6.80 13.50L7.43 15.52L3.44 15.52ZM0.05 20.88L1.75 20.88L3.02 16.85L7.85 16.85L9.11 20.88L10.87 20.88L6.39 7.67L4.54 7.67ZM16.76 20.88L20.14 20.88C24.12 20.88 26.30 18.41 26.30 14.24C26.30 10.04 24.12 7.67 20.07 7.67L16.76 7.67ZM18.43 19.51L18.43 9.04L19.93 9.04C23.04 9.04 24.57 10.89 24.57 14.24C24.57 17.57 23.04 19.51 19.93 19.51ZM29.12 20.88L30.80 20.88L30.80 7.67L29.12 7.67ZM36.54 20.88L38.21 20.88L38.21 15.75L42.17 7.67L40.45 7.67L38.74 11.41C38.34 12.38 37.89 13.30 37.42 14.29L37.35 14.29C36.88 13.30 36.49 12.38 36.05 11.41L34.36 7.67L32.58 7.67L36.54 15.75ZM47.99 20.88L55.42 20.88L55.42 19.46L49.66 19.46L49.66 7.67L47.99 7.67ZM57.76 20.88L59.44 20.88L59.44 7.67L57.76 7.67ZM63.04 20.88L64.71 20.88L64.71 14.96L69.75 14.96L69.75 13.55L64.71 13.55L64.71 9.09L70.65 9.09L70.65 7.67L63.04 7.67ZM72.97 20.88L80.78 20.88L80.78 19.46L74.65 19.46L74.65 14.65L79.65 14.65L79.65 13.23L74.65 13.23L74.65 9.09L80.59 9.09L80.59 7.67L72.97 7.67Z" transform="translate(0, 0)"></path></g></svg> <svg y="357.5949993133545" viewBox="-4.630000114440918 17.84000015258789 161.32000732421875 45.630001068115234" x="206.83999450683595" height="45.630001068115234" width="161.32000732421875" style="overflow: visible;"><g fill="#6ff501" fill-opacity="1" style=""><path d="M25.53 58.16L25.53 58.16Q25.44 58.69 25.11 58.92Q24.78 59.16 24.50 59.59L24.50 59.59L24.38 59.59Q24.06 59.59 23.77 59.66Q23.47 59.72 23.16 59.81L23.16 59.81Q23 59.75 22.78 59.72Q22.56 59.69 22.50 59.50L22.50 59.50Q22.25 59.63 21.81 59.63L21.81 59.63Q21.09 59.63 20.45 59.22Q19.81 58.81 19.13 58.59L19.13 58.59Q18.94 58.22 18.67 57.92Q18.41 57.63 18.14 57.34Q17.88 57.06 17.63 56.75Q17.38 56.44 17.22 56L17.22 56Q17.16 55.81 17.06 55.78Q16.97 55.75 16.78 55.78L16.78 55.78Q16.81 55.44 16.70 55.19Q16.59 54.94 16.22 54.88L16.22 54.88Q16.22 54.47 16.09 54.19Q15.97 53.91 15.80 53.70Q15.63 53.50 15.42 53.28Q15.22 53.06 15.09 52.75L15.09 52.75Q14.81 52.69 14.55 52.67Q14.28 52.66 13.97 52.66L13.97 52.66Q12.47 52.66 11.06 53.22L11.06 53.22Q10.91 53.28 10.73 53.38Q10.56 53.47 10.41 53.53L10.41 53.53Q10.34 53.53 10.30 53.55Q10.25 53.56 10.19 53.56L10.19 53.56Q9.97 53.56 9.78 53.48Q9.59 53.41 9.38 53.41L9.38 53.41Q9.28 53.41 9.17 53.45Q9.06 53.50 8.97 53.53L8.97 53.53Q8.50 53.69 8.09 53.72L8.09 53.72Q6.81 53.97 5.39 54.09Q3.97 54.22 2.78 54.75L2.78 54.75Q2.53 54.88 2.47 55.14Q2.41 55.41 2.44 55.66L2.44 55.66Q2.09 55.91 1.92 56.31Q1.75 56.72 1.61 57.17Q1.47 57.63 1.31 58.06Q1.16 58.50 0.88 58.81L0.88 58.81Q0.97 59 0.97 59.22L0.97 59.22Q0.97 59.69 0.66 60.16Q0.34 60.63 0.19 61.06L0.19 61.06Q0.03 61.50-0.06 61.92Q-0.16 62.34-0.34 62.69Q-0.53 63.03-0.86 63.25Q-1.19 63.47-1.78 63.47L-1.78 63.47Q-2.34 63.47-2.75 63.25Q-3.16 63.03-3.41 62.69Q-3.66 62.34-3.81 61.88Q-3.97 61.41-4.06 60.94L-4.06 60.94Q-3.72 60.25-3.41 59.75Q-3.09 59.25-2.94 58.47L-2.94 58.47Q-2.38 58.06-2.11 57.48Q-1.84 56.91-1.81 56.22L-1.81 56.22Q-1.47 56-1.33 55.64Q-1.19 55.28-1.16 54.88L-1.16 54.88Q-1.91 54.81-2.73 54.75Q-3.56 54.69-4.28 54.44L-4.28 54.44Q-4.28 54.38-4.27 54.31Q-4.25 54.25-4.25 54.19L-4.25 54.19Q-4.25 53.78-4.44 53.45Q-4.63 53.13-4.63 52.75L-4.63 52.75L-4.63 52.50Q-4.38 52.25-4.17 51.98Q-3.97 51.72-3.75 51.50Q-3.53 51.28-3.25 51.14Q-2.97 51-2.53 51L-2.53 51Q-1.94 51-1.38 51.08Q-0.81 51.16-0.22 51.16L-0.22 51.16Q0.19 51.16 0.63 51.06L0.63 51.06Q1.31 49.66 1.84 48.20Q2.38 46.75 2.66 45.25L2.66 45.25Q2.88 44.94 3.06 44.52Q3.25 44.09 3.36 43.63Q3.47 43.16 3.52 42.70Q3.56 42.25 3.56 41.88L3.56 41.88Q3.91 41.47 4.05 40.88Q4.19 40.28 4.28 39.64Q4.38 39 4.48 38.38Q4.59 37.75 4.91 37.28L4.91 37.28L4.91 37Q4.94 36.53 4.81 36.16L4.81 36.16Q4.97 36.09 5 35.88Q5.03 35.66 5.13 35.50L5.13 35.50Q5.16 34.06 5.44 32.67Q5.72 31.28 5.91 29.88L5.91 29.88L5.91 29.78Q5.91 29.63 5.80 29.61Q5.69 29.59 5.69 29.44L5.69 29.44Q5.69 29.16 5.77 28.69Q5.84 28.22 5.88 27.91L5.88 27.91Q6.06 26.22 6.06 24.56L6.06 24.56Q6.06 23.16 5.97 21.78Q5.88 20.41 5.78 19L5.78 19L6.03 18.63Q6.16 18.44 6.25 18.25L6.25 18.25Q6.56 18.13 6.77 17.98Q6.97 17.84 7.31 17.84L7.31 17.84Q7.41 17.84 7.47 17.86Q7.53 17.88 7.59 17.88L7.59 17.88Q7.78 18 7.89 18.22Q8 18.44 8.11 18.63Q8.22 18.81 8.41 18.94Q8.59 19.06 8.94 19L8.94 19Q9.09 19.88 9.81 19.91L9.81 19.91Q9.97 20.34 10.20 20.78Q10.44 21.22 10.84 21.47L10.84 21.47Q10.81 21.59 10.81 21.81L10.81 21.81Q10.81 22.25 11.02 22.66Q11.22 23.06 11.53 23.41L11.53 23.41L11.53 23.47Q11.53 23.81 11.28 23.94L11.28 23.94Q11.56 24.25 11.69 24.69Q11.81 25.13 11.91 25.58Q12 26.03 12.14 26.44Q12.28 26.84 12.63 27.06L12.63 27.06L12.63 27.16Q12.63 27.31 12.52 27.34Q12.41 27.38 12.41 27.53L12.41 27.53Q12.97 28.56 13.19 29.78Q13.41 31 13.75 32.13L13.75 32.13Q13.88 32.25 14.05 32.28Q14.22 32.31 14.31 32.44L14.31 32.44Q14.13 32.56 14.13 32.88Q14.13 33.19 13.97 33.34L13.97 33.34Q14.22 33.56 14.20 33.98Q14.19 34.41 14.44 34.59L14.44 34.59L14.44 34.72Q14.44 34.84 14.38 34.92Q14.31 35 14.31 35.13L14.31 35.13L14.31 35.25Q14.56 36.34 14.70 37.44Q14.84 38.53 15 39.63Q15.16 40.72 15.34 41.80Q15.53 42.88 15.88 43.91L15.88 43.91Q15.91 43.94 15.91 44L15.91 44Q15.91 44.16 15.78 44.17Q15.66 44.19 15.66 44.34L15.66 44.34Q15.66 44.50 15.77 44.70Q15.88 44.91 16 45.03L16 45.03Q15.97 45.16 15.97 45.41L15.97 45.41Q15.97 45.88 16.14 46.31Q16.31 46.75 16.52 47.17Q16.72 47.59 16.88 48.06Q17.03 48.53 17 49.06L17 49.06Q17.19 49.34 17.48 49.53Q17.78 49.72 18.09 49.88Q18.41 50.03 18.67 50.25Q18.94 50.47 19.03 50.84L19.03 50.84Q18.78 51.06 18.69 51.39Q18.59 51.72 18.34 51.97L18.34 51.97Q18.56 52.50 18.86 52.95Q19.16 53.41 19.47 53.84L19.47 53.84L20.13 54.72Q20.47 55.16 20.72 55.66L20.72 55.66Q21.06 55.66 21.22 55.84Q21.38 56.03 21.72 56L21.72 56Q21.84 56.25 21.81 56.56L21.81 56.56Q22.44 56.34 23.06 56.34L23.06 56.34Q23.41 56.34 23.70 56.38Q24 56.41 24.31 56.41L24.31 56.41Q24.69 56.41 24.97 56.31L24.97 56.31Q25.09 56.50 25.16 56.73Q25.22 56.97 25.25 57.22L25.25 57.22L25.34 57.72Q25.41 57.97 25.53 58.16ZM13.75 49.50L13.75 49.50Q13.31 47.34 12.86 45.20Q12.41 43.06 12.06 40.88L12.06 40.88Q11.88 39.72 11.78 38.56Q11.69 37.41 11.55 36.27Q11.41 35.13 11.17 34Q10.94 32.88 10.50 31.78L10.50 31.78L10.50 31.72Q10.50 31.63 10.56 31.56Q10.63 31.50 10.63 31.34L10.63 31.34L10.63 31.22Q10.22 30.94 10.06 30.42Q9.91 29.91 9.80 29.33Q9.69 28.75 9.52 28.20Q9.34 27.66 8.94 27.28L8.94 27.28Q8.78 29.09 8.61 30.89Q8.44 32.69 8.38 34.50L8.38 34.50Q8.06 34.69 7.97 35.13Q7.88 35.56 7.88 35.91L7.88 35.91Q7.88 36.16 7.91 36.42Q7.94 36.69 8.03 36.97L8.03 36.97Q7.47 38.38 7.22 39.86Q6.97 41.34 6.66 42.81L6.66 42.81Q6.63 42.91 6.55 43.23Q6.47 43.56 6.38 43.91Q6.28 44.25 6.22 44.52Q6.16 44.78 6.16 44.81L6.16 44.81Q6.13 45.03 6.14 45.25Q6.16 45.47 6.16 45.69L6.16 45.69L5.69 46.16Q5.56 47.34 5.23 48.45Q4.91 49.56 4.56 50.72L4.56 50.72Q4.78 50.75 4.98 50.77Q5.19 50.78 5.41 50.78L5.41 50.78Q6.41 50.78 7.42 50.64Q8.44 50.50 9.44 50.38L9.44 50.38Q9.78 50.31 10.16 50.27Q10.53 50.22 10.88 50.22L10.88 50.22Q11.03 50.19 11.25 50.20Q11.47 50.22 11.63 50.19L11.63 50.19Q11.88 50.13 11.95 49.98Q12.03 49.84 12.28 49.81L12.28 49.81Q12.47 49.91 12.72 49.91L12.72 49.91Q13 49.91 13.25 49.78Q13.50 49.66 13.75 49.50ZM38 42.69L38 42.69Q38 43.03 37.75 43.20Q37.50 43.38 37.50 43.66L37.50 43.66Q37.50 43.78 37.63 43.97L37.63 43.97Q37.19 43.97 37.03 44.25Q36.88 44.53 36.72 44.88L36.72 44.88L36.31 44.88Q36.16 44.88 36.06 44.94Q35.97 45 35.89 45.11Q35.81 45.22 35.69 45.44L35.69 45.44Q35.09 45.56 34.55 45.83Q34 46.09 33.48 46.39Q32.97 46.69 32.44 46.98Q31.91 47.28 31.34 47.47L31.34 47.47Q31.06 47.94 30.53 48.22L30.53 48.22L30.44 48.22Q30.28 48.25 30.17 48.17Q30.06 48.09 29.91 48.09L29.91 48.09Q29.81 48.09 29.78 48.13L29.78 48.13Q28.84 48.75 27.69 48.75L27.69 48.75Q27.38 48.75 27.09 48.70Q26.81 48.66 26.50 48.66L26.50 48.66Q26.41 48.66 26.38 48.72L26.38 48.72L26.31 48.84Q26.28 48.91 26.23 48.97Q26.19 49.03 26 49.03L26 49.03Q25.66 49.03 25.31 48.94Q24.97 48.84 24.59 48.91L24.59 48.91Q23.88 48.50 23.47 48.13Q23.06 47.75 22.72 47L22.72 47Q22.56 46.66 22.30 46.34Q22.03 46.03 21.91 45.66L21.91 45.66Q21.88 45.53 21.81 45.20Q21.75 44.88 21.69 44.50Q21.63 44.13 21.58 43.78Q21.53 43.44 21.53 43.31L21.53 43.31Q21.53 42.94 21.58 42.58Q21.63 42.22 21.69 41.84L21.69 41.84Q21.88 40.66 21.95 39.45Q22.03 38.25 22.47 37.13L22.47 37.13Q22.41 36.78 22.41 36.47L22.41 36.47L22.41 35.78Q22.41 35.19 22.25 34.78L22.25 34.78Q22.50 34.38 22.50 33.88L22.50 33.88Q22.50 33.31 22.03 33.22L22.03 33.22L22.03 33.13Q22.03 32.47 21.59 32.09L21.59 32.09Q21.59 31 22.14 30.45Q22.69 29.91 23.59 29.50L23.59 29.50Q23.72 29.31 23.69 29.19L23.69 29.19Q23.91 29.25 24.09 29.31Q24.28 29.38 24.47 29.38L24.47 29.38Q24.78 29.38 25.03 29.28L25.03 29.28Q25.13 29.66 25.52 29.73Q25.91 29.81 26.16 29.94L26.16 29.94L26.16 30.34Q26.16 31.31 26.63 32.19L26.63 32.19Q26.50 32.44 26.47 32.72Q26.44 33 26.44 33.25L26.44 33.25Q26.44 33.63 26.47 34Q26.50 34.38 26.50 34.72L26.50 34.72Q26.50 35.09 26.42 35.47Q26.34 35.84 26.06 36.13L26.06 36.13Q26.03 36.53 26.02 37.05Q26 37.56 25.95 38.09Q25.91 38.63 25.78 39.13Q25.66 39.63 25.41 39.94L25.41 39.94Q25.38 40.41 25.36 40.89Q25.34 41.38 25.34 41.81L25.34 41.81Q25.34 42.50 25.42 43.44Q25.50 44.38 25.84 45L25.84 45Q26 45.25 26.45 45.38Q26.91 45.50 27.19 45.50L27.19 45.50Q27.53 45.50 27.89 45.39Q28.25 45.28 28.41 45L28.41 45Q28.59 45.03 28.66 45.19Q28.72 45.34 28.88 45.44L28.88 45.44Q30.66 44.69 32.44 44Q34.22 43.31 35.94 42.41L35.94 42.41Q36.19 42.53 36.47 42.53L36.47 42.53Q36.78 42.53 37.09 42.47Q37.41 42.41 37.72 42.41L37.72 42.41L37.94 42.41Q38 42.59 38 42.69ZM57.56 30.84L57.56 30.84L57.56 30.97Q57.34 31.03 57.34 31.28L57.34 31.28Q57 31.44 56.63 31.52Q56.25 31.59 55.91 31.75L55.91 31.75Q55.56 31.72 55.20 31.70Q54.84 31.69 54.50 31.69L54.50 31.69Q53.56 31.69 52.63 31.75Q51.69 31.81 50.75 31.75L50.75 31.75Q50.31 32 49.80 32.14Q49.28 32.28 48.81 32.28L48.81 32.28Q48.44 32.28 48.16 32.19L48.16 32.19Q47.41 32.56 46.52 32.81Q45.63 33.06 44.72 33.30Q43.81 33.53 42.98 33.83Q42.16 34.13 41.53 34.66L41.53 34.66Q41.47 35.09 41.44 35.52Q41.41 35.94 41.41 36.34L41.41 36.34Q41.41 36.78 41.45 37.16Q41.50 37.53 41.66 37.91L41.66 37.91Q41.81 37.97 42.02 38Q42.22 38.03 42.38 38.03L42.38 38.03Q42.53 38.03 42.69 37.98Q42.84 37.94 42.91 37.78L42.91 37.78Q43.38 37.72 43.84 37.73Q44.31 37.75 44.78 37.75L44.78 37.75Q45.25 37.75 45.70 37.72Q46.16 37.69 46.59 37.56L46.59 37.56Q47.09 37.44 47.58 37.41Q48.06 37.38 48.53 37.34Q49 37.31 49.50 37.23Q50 37.16 50.53 36.91L50.53 36.91Q50.94 37.06 51.36 37.06Q51.78 37.06 52.19 37.13L52.19 37.13Q52.41 37.28 52.55 37.47Q52.69 37.66 52.69 37.91L52.69 37.91Q52.69 38.34 52.38 38.78Q52.06 39.22 51.88 39.59L51.88 39.59L51.53 39.59Q50.78 39.59 50.08 39.80Q49.38 40 48.67 40.27Q47.97 40.53 47.27 40.73Q46.56 40.94 45.81 40.94L45.81 40.94Q45.69 40.94 45.67 41.08Q45.66 41.22 45.59 41.28L45.59 41.28Q45.44 41.25 45.13 41.25L45.13 41.25Q44.41 41.25 43.75 41.41Q43.09 41.56 42.41 41.56L42.41 41.56Q42.22 41.56 42.03 41.55Q41.84 41.53 41.66 41.50L41.66 41.50Q41.50 41.75 41.25 41.83Q41 41.91 40.78 42.09L40.78 42.09Q40.69 42.38 40.67 42.78Q40.66 43.19 40.64 43.61Q40.63 44.03 40.56 44.41Q40.50 44.78 40.31 45L40.31 45Q40.34 45.16 40.56 45.11Q40.78 45.06 40.78 45.31L40.78 45.31Q40.78 45.59 40.72 45.91Q40.66 46.22 40.66 46.53L40.66 46.53Q40.66 47.13 40.80 47.83Q40.94 48.53 41.23 49.13Q41.53 49.72 42.03 50.11Q42.53 50.50 43.28 50.50L43.28 50.50Q43.78 50.50 44.22 50.31Q44.66 50.13 44.94 49.69L44.94 49.69L45.09 49.66Q45.22 49.66 45.33 49.69Q45.44 49.72 45.56 49.72L45.56 49.72Q45.75 49.72 46.05 49.48Q46.34 49.25 46.70 48.94Q47.06 48.63 47.44 48.33Q47.81 48.03 48.16 47.91L48.16 47.91Q48.38 47.47 48.58 47.03Q48.78 46.59 49.19 46.34L49.19 46.34L49.19 45.44Q49.50 45.09 49.86 44.81Q50.22 44.53 50.41 44.09L50.41 44.09Q50.56 44.16 50.70 44.19Q50.84 44.22 51 44.22L51 44.22Q51.16 44.22 51.33 44.19Q51.50 44.16 51.66 44.09L51.66 44.09Q51.91 44.44 52.05 44.86Q52.19 45.28 52.41 45.66L52.41 45.66Q52.13 46.22 51.75 47Q51.38 47.78 50.94 48.56Q50.50 49.34 50.02 50.05Q49.53 50.75 49.06 51.13L49.06 51.13Q48.97 51.22 48.66 51.34L48.66 51.34Q48.31 51.59 48.03 51.83Q47.75 52.06 47.50 52.38L47.50 52.38Q46.59 52.66 45.77 53.13Q44.94 53.59 44.13 54.03L44.13 54.03Q43.75 53.94 43.31 53.94L43.31 53.94Q42.94 53.94 42.56 53.98Q42.19 54.03 41.75 54.03L41.75 54.03Q41.63 53.88 41.39 53.83Q41.16 53.78 41.22 53.50L41.22 53.50Q40.16 53.44 39.50 52.92Q38.84 52.41 38.39 51.66Q37.94 50.91 37.66 50.03Q37.38 49.16 37.06 48.34L37.06 48.34L37.06 48.25Q37.06 48.09 37.19 48.06Q37.31 48.03 37.31 47.88L37.31 47.88Q37.31 47.81 37.28 47.78L37.28 47.78Q37.19 47.44 37.13 47.19Q37.06 46.94 37.06 46.59L37.06 46.59Q37.06 46.09 37.13 45.61Q37.19 45.13 37.19 44.63L37.19 44.63Q37.19 44.13 37.06 43.75L37.06 43.75Q37.19 43.59 37.27 43.33Q37.34 43.06 37.38 42.78Q37.41 42.50 37.42 42.22Q37.44 41.94 37.50 41.72L37.50 41.72Q37.38 41.38 37.28 41.11Q37.19 40.84 37.19 40.47L37.19 40.47L37.19 40.25Q37.50 39.72 37.72 39.16Q37.94 38.59 38.19 38L38.19 38L38.19 37.91Q38.19 37 38.13 36.09Q38.06 35.19 38.06 34.28L38.06 34.28L38.06 33.69Q38.06 33.38 38.09 33.09L38.09 33.09Q38.34 32.97 38.47 32.75Q38.59 32.53 38.84 32.41L38.84 32.41L39.88 32.41L40.06 32.09Q40.16 31.94 40.19 31.75L40.19 31.75Q40.53 31.66 40.86 31.48Q41.19 31.31 41.47 31.13L41.47 31.13Q41.91 30.88 42.27 30.67Q42.63 30.47 42.98 30.33Q43.34 30.19 43.75 30.09Q44.16 30 44.69 29.94L44.69 29.94Q44.94 29.94 45.02 29.84Q45.09 29.75 45.25 29.63L45.25 29.63Q45.63 29.69 46 29.73Q46.38 29.78 46.75 29.78L46.75 29.78Q47.50 29.78 48.16 29.50L48.16 29.50Q49.09 29.50 50.02 29.47Q50.94 29.44 51.88 29.44L51.88 29.44Q52.69 29.44 53.50 29.50Q54.31 29.56 55.09 29.72L55.09 29.72Q55.38 29.63 55.72 29.63L55.72 29.63Q56.09 29.63 56.48 29.70Q56.88 29.78 57.25 29.72L57.25 29.72Q57.28 30.06 57.42 30.30Q57.56 30.53 57.56 30.84ZM76.84 26.94L76.84 26.94Q76.78 27.59 76.39 27.92Q76 28.25 75.50 28.59L75.50 28.59Q74.84 29.56 74.11 30.47Q73.38 31.38 72.61 32.27Q71.84 33.16 71.11 34.08Q70.38 35 69.78 36L69.78 36Q69.06 36.53 68.50 37.17Q67.94 37.81 67.41 38.48Q66.88 39.16 66.36 39.86Q65.84 40.56 65.28 41.19L65.28 41.19Q65.47 41.94 65.94 42.38Q66.41 42.81 66.97 43.17Q67.53 43.53 68.06 43.94Q68.59 44.34 68.88 45L68.88 45Q69.81 45.16 70.70 45.48Q71.59 45.81 72.56 45.81L72.56 45.81Q73.28 45.81 73.94 45.44L73.94 45.44Q74.22 45.50 74.52 45.66Q74.81 45.81 75.16 45.81L75.16 45.81Q75.44 45.81 75.72 45.53L75.72 45.53Q75.78 45.63 75.84 45.77Q75.91 45.91 76.06 45.91L76.06 45.91Q76.13 45.91 76.17 45.89Q76.22 45.88 76.25 45.88L76.25 45.88L76.25 46.38Q76.25 46.66 76.28 46.92Q76.31 47.19 76.41 47.47L76.41 47.47Q76.16 47.47 76 47.56L76 47.56L75.72 47.75Q75.59 47.84 75.41 47.91Q75.22 47.97 74.91 47.91L74.91 47.91Q74.72 47.94 74.67 48.09Q74.63 48.25 74.47 48.34L74.47 48.34Q74.25 48.50 73.89 48.50Q73.53 48.50 73.25 48.66L73.25 48.66L72.19 48.72Q71.66 48.75 71.13 48.75L71.13 48.75Q70.81 48.75 70.38 48.73Q69.94 48.72 69.50 48.67Q69.06 48.63 68.66 48.55Q68.25 48.47 67.97 48.34L67.97 48.34Q66.94 47.84 65.97 47.09Q65 46.34 64.09 45.63L64.09 45.63L63.59 45.19Q63.34 44.97 63.06 44.78L63.06 44.78Q63.03 44.75 62.91 44.75L62.91 44.75Q62.75 44.75 62.64 44.81Q62.53 44.88 62.41 44.88L62.41 44.88Q62.28 44.88 62.28 44.78L62.28 44.78Q61.31 45.72 60.47 46.78L60.47 46.78L58.78 48.91Q58.78 49.16 58.91 49.31L58.91 49.31L59.16 49.59Q59.28 49.72 59.39 49.88Q59.50 50.03 59.50 50.28L59.50 50.28Q59.50 50.47 59.47 50.59L59.47 50.59Q59.19 50.69 58.81 50.72Q58.44 50.75 58.05 50.83Q57.66 50.91 57.34 51.05Q57.03 51.19 56.91 51.50L56.91 51.50Q56.69 51.44 56.52 51.38Q56.34 51.31 56.09 51.34L56.09 51.34Q55.84 51.03 55.58 50.70Q55.31 50.38 55.09 50L55.09 50Q55.06 49.78 55.05 49.58Q55.03 49.38 55.03 49.16L55.03 49.16Q55.03 48.44 55.25 47.86Q55.47 47.28 55.75 46.66L55.75 46.66Q56.28 46.41 56.73 46.11Q57.19 45.81 57.34 45.22L57.34 45.22Q57.75 45.19 58.02 44.95Q58.28 44.72 58.52 44.44Q58.75 44.16 59 43.94Q59.25 43.72 59.69 43.66L59.69 43.66Q59.69 43.59 59.67 43.53Q59.66 43.47 59.66 43.41L59.66 43.41Q59.66 43.19 59.75 43.08Q59.84 42.97 59.98 42.89Q60.13 42.81 60.27 42.75Q60.41 42.69 60.50 42.53L60.50 42.53Q60.38 42.19 60.23 41.88Q60.09 41.56 59.91 41.28L59.91 41.28Q59.59 40.81 59.25 40.38L59.25 40.38L58.56 39.50Q58.41 39.28 58.17 39.11Q57.94 38.94 57.78 38.69L57.78 38.69Q57.63 38.44 57.59 38.13Q57.56 37.81 57.44 37.56L57.44 37.56Q57.28 37.25 57.05 36.98Q56.81 36.72 56.81 36.31L56.81 36.31Q56.81 36.09 56.91 35.91L56.91 35.91Q56.56 35.56 56.41 35.08Q56.25 34.59 56.25 34.13L56.25 34.13Q56.25 33.69 56.38 33.23Q56.50 32.78 56.78 32.41L56.78 32.41L57.06 32.41Q57.22 32.41 57.22 32.31L57.22 32.31Q57.41 32.44 57.64 32.53Q57.88 32.63 57.91 32.88L57.91 32.88Q58.19 32.91 58.47 32.97L58.47 32.97L59.03 33.09Q59.53 33.84 59.94 34.63Q60.34 35.41 60.77 36.19Q61.19 36.97 61.66 37.72Q62.13 38.47 62.72 39.13L62.72 39.13Q63.19 38.94 63.53 38.56Q63.88 38.19 64.17 37.78Q64.47 37.38 64.81 37Q65.16 36.63 65.63 36.44L65.63 36.44Q65.59 36.41 65.59 36.34L65.59 36.34Q65.59 36.19 65.70 36.11Q65.81 36.03 65.75 35.78L65.75 35.78Q66.38 35.34 66.91 34.84Q67.44 34.34 67.66 33.53L67.66 33.53L68.09 33.53Q68.84 32.53 69.61 31.53Q70.38 30.53 71.34 29.72L71.34 29.72L71.34 29.28Q71.84 28.97 72.22 28.55Q72.59 28.13 72.94 27.67Q73.28 27.22 73.61 26.75Q73.94 26.28 74.38 25.91L74.38 25.91Q74.69 26.06 75.03 26.13Q75.38 26.19 75.70 26.28Q76.03 26.38 76.33 26.52Q76.63 26.66 76.84 26.94ZM96.66 35.31L96.66 35.31Q96.66 35.63 96.44 35.72Q96.22 35.81 96.22 36.09L96.22 36.09Q96.22 36.19 96.28 36.25Q96.34 36.31 96.34 36.44L96.34 36.44L96.34 36.56Q95.97 38.38 95.27 39.72Q94.56 41.06 93.63 42.19Q92.69 43.31 91.52 44.31Q90.34 45.31 89 46.41L89 46.41Q88.63 46.72 88.23 47.03Q87.84 47.34 87.50 47.69L87.50 47.69L86.81 48.34Q86.78 48.38 86.47 48.48Q86.16 48.59 86.09 48.63L86.09 48.63Q85.66 48.81 85.17 49.06Q84.69 49.31 84.34 49.69L84.34 49.69Q83.72 49.69 83.28 49.88Q82.84 50.06 82.31 50.38L82.31 50.38Q82.16 50.38 82.05 50.31Q81.94 50.25 81.81 50.19Q81.69 50.13 81.55 50.11Q81.41 50.09 81.19 50.16L81.19 50.16Q80.81 49.53 80.38 49.09Q79.94 48.66 79.19 48.56L79.19 48.56Q79.09 48.03 78.75 47.73Q78.41 47.44 78.06 47.09L78.06 47.09Q78 46.91 77.97 46.66Q77.94 46.41 77.84 46.19Q77.75 45.97 77.59 45.81Q77.44 45.66 77.16 45.66L77.16 45.66Q77.13 45.47 77.31 45.47Q77.50 45.47 77.50 45.31L77.50 45.31Q77.50 45.13 77.44 44.94Q77.38 44.75 77.38 44.53L77.38 44.53Q77.38 44.38 77.41 44.25Q77.44 44.13 77.50 43.97L77.50 43.97Q77.41 43.13 77.41 42.25L77.41 42.25Q77.41 40.56 77.64 38.92Q77.88 37.28 77.88 35.59L77.88 35.59Q77.88 34.84 77.80 34.09Q77.72 33.34 77.50 32.63L77.50 32.63Q76.78 32.78 76.06 32.98Q75.34 33.19 74.72 33.53L74.72 33.53Q74.38 33.31 73.98 33.27Q73.59 33.22 73.22 33.09L73.22 33.09Q73 32.66 73 32.19L73 32.19Q73 31.75 73.16 31.34L73.16 31.34L73.47 30.53Q74.22 30.38 74.95 30.06Q75.69 29.75 76.44 29.50L76.44 29.50Q76.69 29.44 77.08 29.34Q77.47 29.25 77.63 29.19L77.63 29.19Q77.84 29.09 77.92 28.83Q78 28.56 78.16 28.38L78.16 28.38L78.69 28.38Q78.88 28.38 79.09 28.39Q79.31 28.41 79.50 28.50L79.50 28.50Q80.63 28.22 81.75 28.14Q82.88 28.06 84.06 27.91L84.06 27.91Q84.19 27.91 84.44 27.88L84.44 27.88L84.97 27.78Q85.25 27.72 85.48 27.67Q85.72 27.63 85.81 27.63L85.81 27.63Q85.91 27.63 85.91 27.72L85.91 27.72L86.44 27.72Q87.78 27.72 89.06 28.06L89.06 28.06L91.63 28.75Q92.16 29.19 92.69 29.59Q93.22 30 93.88 30.31L93.88 30.31Q94.03 30.81 94.36 31.11Q94.69 31.41 95.09 31.75L95.09 31.75Q95.25 32.16 95.52 32.61Q95.78 33.06 96.03 33.53Q96.28 34 96.47 34.45Q96.66 34.91 96.66 35.31ZM93.75 35.78L93.75 35.78Q93.41 35.06 93.09 34.28Q92.78 33.50 92.31 32.88L92.31 32.88Q91.75 32.72 91.17 32.48Q90.59 32.25 90.38 31.66L90.38 31.66Q90.31 31.69 90.16 31.69L90.16 31.69Q89.88 31.69 89.66 31.47Q89.44 31.25 89.16 31.19L89.16 31.19Q88.91 31.16 88.48 31.09Q88.06 31.03 87.59 31Q87.13 30.97 86.67 30.94Q86.22 30.91 85.97 30.91L85.97 30.91Q85.72 30.91 85.45 30.92Q85.19 30.94 84.91 30.97L84.91 30.97Q84.66 30.97 84.59 31.05Q84.53 31.13 84.34 31.19L84.34 31.19Q84.19 31.13 84 31.13L84 31.13L83.63 31.13Q82.97 31.13 82.33 31.33Q81.69 31.53 81.06 31.88L81.06 31.88L81.06 32Q81.06 32.25 81.28 32.28Q81.50 32.31 81.53 32.53L81.53 32.53Q81.38 32.53 81.28 32.55Q81.19 32.56 81.19 32.78L81.19 32.78Q81.19 33.09 81.27 33.47Q81.34 33.84 81.34 34.22L81.34 34.22Q81.34 34.50 81.28 34.88Q81.22 35.25 80.97 35.47L80.97 35.47Q81.28 35.75 81.28 36.22L81.28 36.22Q81.28 36.53 81.16 36.88Q81.03 37.22 80.84 37.47L80.84 37.47Q80.78 38.78 80.59 40.13Q80.41 41.47 80.41 42.78L80.41 42.78Q80.41 43.44 80.48 44.06Q80.56 44.69 80.75 45.31L80.75 45.31Q81.09 45.66 81.48 45.84Q81.88 46.03 82.31 46.22L82.31 46.22L82.31 46.31Q82.31 46.41 82.19 46.50Q82.06 46.59 82.06 46.75L82.06 46.75Q82.06 46.88 82.19 46.88L82.19 46.88Q83.50 46.50 84.66 45.97Q85.81 45.44 86.81 44.53L86.81 44.53Q86.91 44.44 87 44.44L87 44.44Q87.06 44.44 87.17 44.47Q87.28 44.50 87.38 44.53L87.38 44.53L87.34 44.41Q87.34 44.22 87.45 44.06Q87.56 43.91 87.72 43.78L87.72 43.78L88.03 43.50Q88.19 43.34 88.28 43.19L88.28 43.19Q88.53 43.13 88.64 42.94Q88.75 42.75 89.03 42.75L89.03 42.75Q89.09 42.41 89.38 42.23Q89.66 42.06 89.72 41.72L89.72 41.72Q90.34 41.38 90.83 40.88Q91.31 40.38 91.73 39.81Q92.16 39.25 92.53 38.64Q92.91 38.03 93.31 37.47L93.31 37.47L93.31 37.34Q93.31 36.84 93.48 36.53Q93.66 36.22 93.75 35.78ZM117.81 30.84L117.81 30.84L117.81 30.97Q117.59 31.03 117.59 31.28L117.59 31.28Q117.25 31.44 116.88 31.52Q116.50 31.59 116.16 31.75L116.16 31.75Q115.81 31.72 115.45 31.70Q115.09 31.69 114.75 31.69L114.75 31.69Q113.81 31.69 112.88 31.75Q111.94 31.81 111 31.75L111 31.75Q110.56 32 110.05 32.14Q109.53 32.28 109.06 32.28L109.06 32.28Q108.69 32.28 108.41 32.19L108.41 32.19Q107.66 32.56 106.77 32.81Q105.88 33.06 104.97 33.30Q104.06 33.53 103.23 33.83Q102.41 34.13 101.78 34.66L101.78 34.66Q101.72 35.09 101.69 35.52Q101.66 35.94 101.66 36.34L101.66 36.34Q101.66 36.78 101.70 37.16Q101.75 37.53 101.91 37.91L101.91 37.91Q102.06 37.97 102.27 38Q102.47 38.03 102.63 38.03L102.63 38.03Q102.78 38.03 102.94 37.98Q103.09 37.94 103.16 37.78L103.16 37.78Q103.63 37.72 104.09 37.73Q104.56 37.75 105.03 37.75L105.03 37.75Q105.50 37.75 105.95 37.72Q106.41 37.69 106.84 37.56L106.84 37.56Q107.34 37.44 107.83 37.41Q108.31 37.38 108.78 37.34Q109.25 37.31 109.75 37.23Q110.25 37.16 110.78 36.91L110.78 36.91Q111.19 37.06 111.61 37.06Q112.03 37.06 112.44 37.13L112.44 37.13Q112.66 37.28 112.80 37.47Q112.94 37.66 112.94 37.91L112.94 37.91Q112.94 38.34 112.63 38.78Q112.31 39.22 112.13 39.59L112.13 39.59L111.78 39.59Q111.03 39.59 110.33 39.80Q109.63 40 108.92 40.27Q108.22 40.53 107.52 40.73Q106.81 40.94 106.06 40.94L106.06 40.94Q105.94 40.94 105.92 41.08Q105.91 41.22 105.84 41.28L105.84 41.28Q105.69 41.25 105.38 41.25L105.38 41.25Q104.66 41.25 104 41.41Q103.34 41.56 102.66 41.56L102.66 41.56Q102.47 41.56 102.28 41.55Q102.09 41.53 101.91 41.50L101.91 41.50Q101.75 41.75 101.50 41.83Q101.25 41.91 101.03 42.09L101.03 42.09Q100.94 42.38 100.92 42.78Q100.91 43.19 100.89 43.61Q100.88 44.03 100.81 44.41Q100.75 44.78 100.56 45L100.56 45Q100.59 45.16 100.81 45.11Q101.03 45.06 101.03 45.31L101.03 45.31Q101.03 45.59 100.97 45.91Q100.91 46.22 100.91 46.53L100.91 46.53Q100.91 47.13 101.05 47.83Q101.19 48.53 101.48 49.13Q101.78 49.72 102.28 50.11Q102.78 50.50 103.53 50.50L103.53 50.50Q104.03 50.50 104.47 50.31Q104.91 50.13 105.19 49.69L105.19 49.69L105.34 49.66Q105.47 49.66 105.58 49.69Q105.69 49.72 105.81 49.72L105.81 49.72Q106 49.72 106.30 49.48Q106.59 49.25 106.95 48.94Q107.31 48.63 107.69 48.33Q108.06 48.03 108.41 47.91L108.41 47.91Q108.63 47.47 108.83 47.03Q109.03 46.59 109.44 46.34L109.44 46.34L109.44 45.44Q109.75 45.09 110.11 44.81Q110.47 44.53 110.66 44.09L110.66 44.09Q110.81 44.16 110.95 44.19Q111.09 44.22 111.25 44.22L111.25 44.22Q111.41 44.22 111.58 44.19Q111.75 44.16 111.91 44.09L111.91 44.09Q112.16 44.44 112.30 44.86Q112.44 45.28 112.66 45.66L112.66 45.66Q112.38 46.22 112 47Q111.63 47.78 111.19 48.56Q110.75 49.34 110.27 50.05Q109.78 50.75 109.31 51.13L109.31 51.13Q109.22 51.22 108.91 51.34L108.91 51.34Q108.56 51.59 108.28 51.83Q108 52.06 107.75 52.38L107.75 52.38Q106.84 52.66 106.02 53.13Q105.19 53.59 104.38 54.03L104.38 54.03Q104 53.94 103.56 53.94L103.56 53.94Q103.19 53.94 102.81 53.98Q102.44 54.03 102 54.03L102 54.03Q101.88 53.88 101.64 53.83Q101.41 53.78 101.47 53.50L101.47 53.50Q100.41 53.44 99.75 52.92Q99.09 52.41 98.64 51.66Q98.19 50.91 97.91 50.03Q97.63 49.16 97.31 48.34L97.31 48.34L97.31 48.25Q97.31 48.09 97.44 48.06Q97.56 48.03 97.56 47.88L97.56 47.88Q97.56 47.81 97.53 47.78L97.53 47.78Q97.44 47.44 97.38 47.19Q97.31 46.94 97.31 46.59L97.31 46.59Q97.31 46.09 97.38 45.61Q97.44 45.13 97.44 44.63L97.44 44.63Q97.44 44.13 97.31 43.75L97.31 43.75Q97.44 43.59 97.52 43.33Q97.59 43.06 97.63 42.78Q97.66 42.50 97.67 42.22Q97.69 41.94 97.75 41.72L97.75 41.72Q97.63 41.38 97.53 41.11Q97.44 40.84 97.44 40.47L97.44 40.47L97.44 40.25Q97.75 39.72 97.97 39.16Q98.19 38.59 98.44 38L98.44 38L98.44 37.91Q98.44 37 98.38 36.09Q98.31 35.19 98.31 34.28L98.31 34.28L98.31 33.69Q98.31 33.38 98.34 33.09L98.34 33.09Q98.59 32.97 98.72 32.75Q98.84 32.53 99.09 32.41L99.09 32.41L100.13 32.41L100.31 32.09Q100.41 31.94 100.44 31.75L100.44 31.75Q100.78 31.66 101.11 31.48Q101.44 31.31 101.72 31.13L101.72 31.13Q102.16 30.88 102.52 30.67Q102.88 30.47 103.23 30.33Q103.59 30.19 104 30.09Q104.41 30 104.94 29.94L104.94 29.94Q105.19 29.94 105.27 29.84Q105.34 29.75 105.50 29.63L105.50 29.63Q105.88 29.69 106.25 29.73Q106.63 29.78 107 29.78L107 29.78Q107.75 29.78 108.41 29.50L108.41 29.50Q109.34 29.50 110.27 29.47Q111.19 29.44 112.13 29.44L112.13 29.44Q112.94 29.44 113.75 29.50Q114.56 29.56 115.34 29.72L115.34 29.72Q115.63 29.63 115.97 29.63L115.97 29.63Q116.34 29.63 116.73 29.70Q117.13 29.78 117.50 29.72L117.50 29.72Q117.53 30.06 117.67 30.30Q117.81 30.53 117.81 30.84ZM133.34 42.69L133.34 42.69Q133.34 43.03 133.09 43.20Q132.84 43.38 132.84 43.66L132.84 43.66Q132.84 43.78 132.97 43.97L132.97 43.97Q132.53 43.97 132.38 44.25Q132.22 44.53 132.06 44.88L132.06 44.88L131.66 44.88Q131.50 44.88 131.41 44.94Q131.31 45 131.23 45.11Q131.16 45.22 131.03 45.44L131.03 45.44Q130.44 45.56 129.89 45.83Q129.34 46.09 128.83 46.39Q128.31 46.69 127.78 46.98Q127.25 47.28 126.69 47.47L126.69 47.47Q126.41 47.94 125.88 48.22L125.88 48.22L125.78 48.22Q125.63 48.25 125.52 48.17Q125.41 48.09 125.25 48.09L125.25 48.09Q125.16 48.09 125.13 48.13L125.13 48.13Q124.19 48.75 123.03 48.75L123.03 48.75Q122.72 48.75 122.44 48.70Q122.16 48.66 121.84 48.66L121.84 48.66Q121.75 48.66 121.72 48.72L121.72 48.72L121.66 48.84Q121.63 48.91 121.58 48.97Q121.53 49.03 121.34 49.03L121.34 49.03Q121 49.03 120.66 48.94Q120.31 48.84 119.94 48.91L119.94 48.91Q119.22 48.50 118.81 48.13Q118.41 47.75 118.06 47L118.06 47Q117.91 46.66 117.64 46.34Q117.38 46.03 117.25 45.66L117.25 45.66Q117.22 45.53 117.16 45.20Q117.09 44.88 117.03 44.50Q116.97 44.13 116.92 43.78Q116.88 43.44 116.88 43.31L116.88 43.31Q116.88 42.94 116.92 42.58Q116.97 42.22 117.03 41.84L117.03 41.84Q117.22 40.66 117.30 39.45Q117.38 38.25 117.81 37.13L117.81 37.13Q117.75 36.78 117.75 36.47L117.75 36.47L117.75 35.78Q117.75 35.19 117.59 34.78L117.59 34.78Q117.84 34.38 117.84 33.88L117.84 33.88Q117.84 33.31 117.38 33.22L117.38 33.22L117.38 33.13Q117.38 32.47 116.94 32.09L116.94 32.09Q116.94 31 117.48 30.45Q118.03 29.91 118.94 29.50L118.94 29.50Q119.06 29.31 119.03 29.19L119.03 29.19Q119.25 29.25 119.44 29.31Q119.63 29.38 119.81 29.38L119.81 29.38Q120.13 29.38 120.38 29.28L120.38 29.28Q120.47 29.66 120.86 29.73Q121.25 29.81 121.50 29.94L121.50 29.94L121.50 30.34Q121.50 31.31 121.97 32.19L121.97 32.19Q121.84 32.44 121.81 32.72Q121.78 33 121.78 33.25L121.78 33.25Q121.78 33.63 121.81 34Q121.84 34.38 121.84 34.72L121.84 34.72Q121.84 35.09 121.77 35.47Q121.69 35.84 121.41 36.13L121.41 36.13Q121.38 36.53 121.36 37.05Q121.34 37.56 121.30 38.09Q121.25 38.63 121.13 39.13Q121 39.63 120.75 39.94L120.75 39.94Q120.72 40.41 120.70 40.89Q120.69 41.38 120.69 41.81L120.69 41.81Q120.69 42.50 120.77 43.44Q120.84 44.38 121.19 45L121.19 45Q121.34 45.25 121.80 45.38Q122.25 45.50 122.53 45.50L122.53 45.50Q122.88 45.50 123.23 45.39Q123.59 45.28 123.75 45L123.75 45Q123.94 45.03 124 45.19Q124.06 45.34 124.22 45.44L124.22 45.44Q126 44.69 127.78 44Q129.56 43.31 131.28 42.41L131.28 42.41Q131.53 42.53 131.81 42.53L131.81 42.53Q132.13 42.53 132.44 42.47Q132.75 42.41 133.06 42.41L133.06 42.41L133.28 42.41Q133.34 42.59 133.34 42.69ZM150.16 42.69L150.16 42.69Q150.16 43.03 149.91 43.20Q149.66 43.38 149.66 43.66L149.66 43.66Q149.66 43.78 149.78 43.97L149.78 43.97Q149.34 43.97 149.19 44.25Q149.03 44.53 148.88 44.88L148.88 44.88L148.47 44.88Q148.31 44.88 148.22 44.94Q148.13 45 148.05 45.11Q147.97 45.22 147.84 45.44L147.84 45.44Q147.25 45.56 146.70 45.83Q146.16 46.09 145.64 46.39Q145.13 46.69 144.59 46.98Q144.06 47.28 143.50 47.47L143.50 47.47Q143.22 47.94 142.69 48.22L142.69 48.22L142.59 48.22Q142.44 48.25 142.33 48.17Q142.22 48.09 142.06 48.09L142.06 48.09Q141.97 48.09 141.94 48.13L141.94 48.13Q141 48.75 139.84 48.75L139.84 48.75Q139.53 48.75 139.25 48.70Q138.97 48.66 138.66 48.66L138.66 48.66Q138.56 48.66 138.53 48.72L138.53 48.72L138.47 48.84Q138.44 48.91 138.39 48.97Q138.34 49.03 138.16 49.03L138.16 49.03Q137.81 49.03 137.47 48.94Q137.13 48.84 136.75 48.91L136.75 48.91Q136.03 48.50 135.63 48.13Q135.22 47.75 134.88 47L134.88 47Q134.72 46.66 134.45 46.34Q134.19 46.03 134.06 45.66L134.06 45.66Q134.03 45.53 133.97 45.20Q133.91 44.88 133.84 44.50Q133.78 44.13 133.73 43.78Q133.69 43.44 133.69 43.31L133.69 43.31Q133.69 42.94 133.73 42.58Q133.78 42.22 133.84 41.84L133.84 41.84Q134.03 40.66 134.11 39.45Q134.19 38.25 134.63 37.13L134.63 37.13Q134.56 36.78 134.56 36.47L134.56 36.47L134.56 35.78Q134.56 35.19 134.41 34.78L134.41 34.78Q134.66 34.38 134.66 33.88L134.66 33.88Q134.66 33.31 134.19 33.22L134.19 33.22L134.19 33.13Q134.19 32.47 133.75 32.09L133.75 32.09Q133.75 31 134.30 30.45Q134.84 29.91 135.75 29.50L135.75 29.50Q135.88 29.31 135.84 29.19L135.84 29.19Q136.06 29.25 136.25 29.31Q136.44 29.38 136.63 29.38L136.63 29.38Q136.94 29.38 137.19 29.28L137.19 29.28Q137.28 29.66 137.67 29.73Q138.06 29.81 138.31 29.94L138.31 29.94L138.31 30.34Q138.31 31.31 138.78 32.19L138.78 32.19Q138.66 32.44 138.63 32.72Q138.59 33 138.59 33.25L138.59 33.25Q138.59 33.63 138.63 34Q138.66 34.38 138.66 34.72L138.66 34.72Q138.66 35.09 138.58 35.47Q138.50 35.84 138.22 36.13L138.22 36.13Q138.19 36.53 138.17 37.05Q138.16 37.56 138.11 38.09Q138.06 38.63 137.94 39.13Q137.81 39.63 137.56 39.94L137.56 39.94Q137.53 40.41 137.52 40.89Q137.50 41.38 137.50 41.81L137.50 41.81Q137.50 42.50 137.58 43.44Q137.66 44.38 138 45L138 45Q138.16 45.25 138.61 45.38Q139.06 45.50 139.34 45.50L139.34 45.50Q139.69 45.50 140.05 45.39Q140.41 45.28 140.56 45L140.56 45Q140.75 45.03 140.81 45.19Q140.88 45.34 141.03 45.44L141.03 45.44Q142.81 44.69 144.59 44Q146.38 43.31 148.09 42.41L148.09 42.41Q148.34 42.53 148.63 42.53L148.63 42.53Q148.94 42.53 149.25 42.47Q149.56 42.41 149.88 42.41L149.88 42.41L150.09 42.41Q150.16 42.59 150.16 42.69ZM156.69 46.44L156.69 46.44Q156.53 46.69 156.31 46.89Q156.09 47.09 155.91 47.31L155.91 47.31Q155.69 47.41 155.42 47.41Q155.16 47.41 154.92 47.39Q154.69 47.38 154.48 47.39Q154.28 47.41 154.16 47.53L154.16 47.53Q153.91 47.47 153.78 47.30Q153.66 47.13 153.34 47.09L153.34 47.09Q153.22 47.06 153.09 47.09L153.09 47.09Q152.63 46.56 152.23 45.97Q151.84 45.38 151.50 44.84L151.50 44.84Q151.47 43.69 151.31 42.50L151.31 42.50Q151.28 42.22 151.22 41.94Q151.16 41.66 151.13 41.41L151.13 41.41Q151.13 41.09 151.17 40.80Q151.22 40.50 151.25 40.25L151.25 40.25Q151.38 39.34 151.53 38.47Q151.69 37.59 151.81 36.69L151.81 36.69Q151.94 35.88 151.94 34.98Q151.94 34.09 151.66 33.31L151.66 33.31L151.63 33.16Q151.69 32.91 151.77 32.73Q151.84 32.56 151.88 32.34L151.88 32.34Q151.94 32 151.72 31.84L151.72 31.84Q151.81 31.59 152.03 31.52Q152.25 31.44 152.28 31.16L152.28 31.16Q152.31 31.03 152.28 30.91L152.28 30.91Q152.53 30.81 152.80 30.73Q153.06 30.66 153.31 30.72L153.31 30.72Q153.72 30.78 154.03 30.98Q154.34 31.19 154.63 31.44L154.63 31.44Q155.13 32.94 155.03 34.61Q154.94 36.28 154.72 37.97Q154.50 39.66 154.44 41.27Q154.38 42.88 154.94 44.25L154.94 44.25L155 44.28Q155.16 44.31 155.25 44.17Q155.34 44.03 155.50 44.06L155.50 44.06Q155.63 44.13 155.66 44.13L155.66 44.13Q155.78 44.75 156.06 45.31Q156.34 45.88 156.69 46.44Z" transform="translate(0, 0)"></path></g></svg></svg>